<svg width="60" height="60" viewBox="0 0 60 60" fill="none" xmlns="http://www.w3.org/2000/svg">
<path fill-rule="evenodd" clip-rule="evenodd" d="M0.0175781 0H59.9824C59.9921 0 60 0.00787 60 0.0175781V59.9824C60 59.9921 59.9921 60 59.9824 60H0.0175781C0.00787 60 0 59.9921 0 59.9824V0.0175781C0 0.00787 0.00787 0 0.0175781 0ZM40.5469 45.9375L38.0859 43.0078C42.8906 41.7188 44.7656 38.4375 44.7656 38.4375C38.6719 44.1797 22.0312 44.4141 15.5859 38.4375C15.5859 38.4375 17.2266 41.4844 22.1484 43.0078L19.4531 45.9375C11.25 45.8203 8.08594 40.3125 8.08594 40.3125C8.08594 28.125 13.4766 18.3984 13.4766 18.3984C18.9844 14.5312 24.0234 14.5312 24.0234 14.5312L24.375 15C17.5781 16.875 14.6484 19.9219 14.6484 19.9219C22.6172 14.5312 39.0234 15 45.4688 19.9219C45.5859 19.8047 41.6016 16.6406 35.3906 15L35.9766 14.5312C35.9766 14.5312 41.0156 14.5312 46.5234 18.3984C46.5234 18.3984 51.9141 28.125 51.9141 40.3125C51.9141 40.3125 48.75 45.8203 40.5469 45.9375ZM26.8359 32.6953C26.8359 34.9605 25.1045 36.7969 22.9688 36.7969C20.833 36.7969 19.1016 34.9605 19.1016 32.6953C19.1016 30.4301 20.833 28.5938 22.9688 28.5938C25.1045 28.5938 26.8359 30.4301 26.8359 32.6953ZM40.4297 32.6953C40.4297 34.9605 38.6983 36.7969 36.5625 36.7969C34.4267 36.7969 32.6953 34.9605 32.6953 32.6953C32.6953 30.4301 34.4267 28.5938 36.5625 28.5938C38.6983 28.5938 40.4297 30.4301 40.4297 32.6953Z" fill="#4B4B4B"/>
</svg>
