<svg width="53" height="27" viewBox="0 0 53 27" fill="none" xmlns="http://www.w3.org/2000/svg">
<path opacity="0.3" d="M36.6667 26.7972L52.7083 19.6222L16.0417 3.22217L0 10.3972L36.6667 26.7972Z" fill="#262626"/>
<path d="M28.176 21.088L33.928 19.6633L29.9635 17.6235L27.9583 19.3558L28.176 21.088Z" fill="#2D3134"/>
<path opacity="0.29" d="M28.176 21.088L33.928 19.6633L29.9635 17.6235L27.9583 19.3558L28.176 21.088Z" fill="black"/>
<path d="M6.24479 11.1146L11.9969 9.67964L8.02083 7.63989L6.01562 9.37214L6.24479 11.1146Z" fill="#2D3134"/>
<path opacity="0.29" d="M6.24479 11.1146L11.9969 9.67964L8.02083 7.63989L6.01562 9.37214L6.24479 11.1146Z" fill="black"/>
<path d="M32.4729 18.7305C31.7052 18.382 31.0062 18.341 30.4906 18.5562L29.402 19.079C28.852 19.3045 28.4968 19.8067 28.4968 20.5447C28.4968 21.9695 29.7916 23.712 31.3843 24.4192C32.1749 24.7677 32.8854 24.8087 33.4124 24.5832C33.4124 24.5832 34.4895 24.0707 34.6041 24.0092C35.0739 23.7632 35.3604 23.2815 35.3604 22.6152C35.3604 21.1802 34.0656 19.448 32.4729 18.7305V18.7305Z" fill="#2D3134"/>
<path opacity="0.29" d="M33.4468 24.573C33.653 24.4808 34.5009 24.0708 34.6041 24.0093C35.0739 23.7633 35.3603 23.2815 35.3603 22.6153C35.3603 22.0413 35.1541 21.416 34.7989 20.8318L33.7103 21.3545C34.0655 21.9388 34.2718 22.564 34.2718 23.138C34.2832 23.835 33.9624 24.3373 33.4468 24.573V24.573Z" fill="black"/>
<path d="M34.2833 23.138C34.2833 24.5627 32.9885 25.147 31.3958 24.4295C29.8031 23.712 28.5083 21.9797 28.5083 20.555C28.5083 19.1302 29.8031 18.546 31.3958 19.2635C32.9885 19.9707 34.2833 21.7132 34.2833 23.138Z" fill="#2D3134"/>
<path d="M33.6533 22.8509C33.6533 23.9682 32.6449 24.4192 31.396 23.8657C30.147 23.3122 29.1387 21.9489 29.1387 20.8317C29.1387 19.7144 30.147 19.2634 31.396 19.8169C32.6335 20.3807 33.6533 21.7337 33.6533 22.8509Z" fill="#E5E5E5"/>
<path d="M32.874 23.7529C33.2177 23.5787 33.424 23.2404 33.424 22.7587V22.6459L32.1636 22.4717L32.874 23.7529Z" fill="#2D3134"/>
<path d="M31.8657 21.5287L33.1834 21.7849C32.9084 21.2007 32.4157 20.6267 31.8198 20.2577L31.8657 21.5287Z" fill="#2D3134"/>
<path d="M30.9261 21.1084L30.9719 19.8784C30.3761 19.7247 29.8834 19.8477 29.6084 20.1859L30.9261 21.1084Z" fill="#2D3134"/>
<path d="M29.3677 20.8214V20.9342C29.3677 21.4159 29.5739 21.9387 29.9177 22.4204L30.6396 21.7849L29.3677 20.8214V20.8214Z" fill="#2D3134"/>
<path d="M31.3959 22.6152L30.6167 23.1789C30.8573 23.3737 31.1209 23.5377 31.3959 23.6607C31.6709 23.7837 31.9344 23.8554 32.175 23.8657L31.3959 22.6152Z" fill="#2D3134"/>
<path opacity="0.11" d="M34.2833 23.138C34.2833 24.5627 32.9885 25.147 31.3958 24.4295C29.8031 23.712 28.5083 21.9797 28.5083 20.555C28.5083 19.1302 29.8031 18.546 31.3958 19.2635C32.9885 19.9707 34.2833 21.7132 34.2833 23.138Z" fill="black"/>
<path d="M10.4614 8.81873C9.69369 8.47023 8.99473 8.42923 8.4791 8.64448L7.39056 9.16723C6.84056 9.39273 6.48535 9.89499 6.48535 10.633C6.48535 12.0577 7.78014 13.8002 9.37285 14.5075C10.1635 14.856 10.8739 14.897 11.401 14.6715C11.401 14.6715 12.4781 14.159 12.5926 14.0975C13.0624 13.8515 13.3489 13.3697 13.3489 12.7035C13.3489 11.2685 12.0541 9.53624 10.4614 8.81873V8.81873Z" fill="#2D3134"/>
<path opacity="0.29" d="M11.4355 14.6612C11.6418 14.5689 12.4897 14.1589 12.5928 14.0974C13.0626 13.8514 13.3491 13.3697 13.3491 12.7034C13.3491 12.1294 13.1428 11.5042 12.7876 10.9199L11.6991 11.4427C12.0543 12.0269 12.2605 12.6522 12.2605 13.2262C12.2605 13.9232 11.9512 14.4152 11.4355 14.6612V14.6612Z" fill="black"/>
<path d="M12.2604 13.216C12.2604 14.6407 10.9656 15.225 9.37285 14.5075C7.78014 13.79 6.48535 12.0577 6.48535 10.633C6.48535 9.20822 7.78014 8.62397 9.37285 9.34147C10.977 10.059 12.2604 11.7912 12.2604 13.216Z" fill="#2D3134"/>
<path d="M11.6303 12.9393C11.6303 14.0566 10.622 14.5076 9.37302 13.9541C8.12406 13.4006 7.11572 12.0373 7.11572 10.9201C7.11572 9.80281 8.12406 9.3518 9.37302 9.9053C10.622 10.4588 11.6303 11.8221 11.6303 12.9393V12.9393Z" fill="#E5E5E5"/>
<path d="M10.8625 13.8311C11.2063 13.6568 11.4125 13.3186 11.4125 12.8368V12.7241L10.1521 12.5498L10.8625 13.8311V13.8311Z" fill="#2D3134"/>
<path d="M9.84271 11.6068L11.1604 11.8631C10.8854 11.2788 10.3927 10.7048 9.79688 10.3358L9.84271 11.6068Z" fill="#2D3134"/>
<path d="M8.90316 11.1866L8.94899 9.95656C8.35316 9.80281 7.86045 9.92581 7.58545 10.2641L8.90316 11.1866Z" fill="#2D3134"/>
<path d="M7.34473 10.8995V11.0123C7.34473 11.494 7.55098 12.0168 7.89473 12.4985L8.6166 11.863L7.34473 10.8995Z" fill="#2D3134"/>
<path d="M9.37292 12.7036L8.59375 13.2673C8.83438 13.4621 9.09792 13.6261 9.37292 13.7491C9.64792 13.8721 9.91146 13.9438 10.1521 13.9541L9.37292 12.7036Z" fill="#2D3134"/>
<path opacity="0.11" d="M12.2604 13.216C12.2604 14.6407 10.9656 15.225 9.37285 14.5075C7.78014 13.79 6.48535 12.0577 6.48535 10.633C6.48535 9.20822 7.78014 8.62397 9.37285 9.34147C10.977 10.059 12.2604 11.7912 12.2604 13.216Z" fill="black"/>
<path d="M50.0843 12.3447C49.5687 11.863 43.5301 7.61948 42.4416 6.87123C41.353 6.13323 33.2176 1.19272 29.3562 0.987722C25.4947 0.782722 24.7155 0.895472 23.1343 0.526472C21.553 0.157472 18.0353 -0.631778 12.6728 0.946723C7.31032 2.52522 3.88428 5.50797 3.88428 7.93723C3.88428 8.75723 4.06761 9.58748 5.30511 10.4895C5.51136 10.6432 5.83219 10.838 6.21032 11.0532C6.1874 10.8995 6.16449 10.7457 6.16449 10.592C6.16449 9.50548 6.8749 8.80848 7.9749 8.80848C8.41032 8.80848 8.88011 8.92123 9.36136 9.13648C11.0228 9.87448 12.3634 11.6887 12.3634 13.175C12.3634 13.503 12.2947 13.8002 12.1687 14.0565L28.2447 21.0982C28.1989 20.8932 28.1759 20.6985 28.1759 20.5037C28.1759 19.4172 28.8864 18.7202 29.9864 18.7202C30.4218 18.7202 30.8916 18.833 31.3728 19.0482C33.0343 19.7862 34.3749 21.6005 34.3749 23.0867C34.3749 23.2712 34.352 23.4455 34.3176 23.6095C34.9364 23.7735 35.7957 23.9477 36.8384 24.04C39.1645 24.245 42.9801 23.6197 46.3947 22.0002C50.2905 20.1552 51.8145 18.382 51.9864 17.4595C52.1812 16.537 50.5999 12.8265 50.0843 12.3447V12.3447Z" fill="#F8EBCB"/>
<path d="M50.0843 12.3447C49.5687 11.863 43.5301 7.61948 42.4416 6.87123C41.353 6.13323 33.2176 1.19272 29.3562 0.987722C25.4947 0.782722 24.7155 0.895472 23.1343 0.526472C21.553 0.157472 18.0353 -0.631778 12.6728 0.946723C7.31032 2.52522 3.88428 5.50797 3.88428 7.93723C3.88428 8.75723 4.06761 9.58748 5.30511 10.4895C5.51136 10.6432 5.83219 10.838 6.21032 11.0532C6.1874 10.8995 6.16449 10.7457 6.16449 10.592C6.16449 9.50548 6.8749 8.80848 7.9749 8.80848C8.41032 8.80848 8.88011 8.92123 9.36136 9.13648C11.0228 9.87448 12.3634 11.6887 12.3634 13.175C12.3634 13.503 12.2947 13.8002 12.1687 14.0565L28.2447 21.0982C28.1989 20.8932 28.1759 20.6985 28.1759 20.5037C28.1759 19.4172 28.8864 18.7202 29.9864 18.7202C30.4218 18.7202 30.8916 18.833 31.3728 19.0482C33.0343 19.7862 34.3749 21.6005 34.3749 23.0867C34.3749 23.2712 34.352 23.4455 34.3176 23.6095C34.9364 23.7735 35.7957 23.9477 36.8384 24.04C39.1645 24.245 42.9801 23.6197 46.3947 22.0002C50.2905 20.1552 51.8145 18.382 51.9864 17.4595C52.1812 16.537 50.5999 12.8265 50.0843 12.3447V12.3447Z" fill="#F8EBCB"/>
<path opacity="0.2" d="M21.324 12.4575C21.324 12.7548 21.049 12.8778 20.7167 12.7343C20.3844 12.5805 20.1094 12.2218 20.1094 11.9143C20.1094 11.617 20.3844 11.494 20.7167 11.6375C21.049 11.7913 21.324 12.15 21.324 12.4575Z" fill="black"/>
<path d="M21.324 12.7137L21.5875 12.4472C21.5875 12.4472 19.674 11.3299 19.5021 11.5554C19.3187 11.7707 21.324 12.7137 21.324 12.7137V12.7137Z" fill="#F8EBCB"/>
<path opacity="0.2" d="M29.8259 15.6862C29.8259 15.9835 29.5509 16.1065 29.2186 15.963C28.8863 15.8092 28.6113 15.4505 28.6113 15.143C28.6113 14.8355 28.8863 14.7228 29.2186 14.8663C29.5509 15.02 29.8259 15.389 29.8259 15.6862Z" fill="black"/>
<path d="M29.826 15.9527L30.0896 15.6862C30.0896 15.6862 28.176 14.569 28.0042 14.7945C27.8323 15.0097 29.826 15.9527 29.826 15.9527V15.9527Z" fill="#F8EBCB"/>
<path d="M13.3374 8.04994L32.7937 15.3069C32.7937 15.3069 30.903 9.15694 24.6353 6.89169C17.8978 4.46244 13.3374 8.04994 13.3374 8.04994V8.04994Z" fill="#2D3134"/>
<path d="M15.4688 8.44967L22.424 11.0429L24.8417 7.38367C24.7271 7.33242 24.601 7.29142 24.475 7.25042C22.974 6.70717 21.4615 6.43042 19.9719 6.43042C18.4708 6.43042 17.1875 6.71742 16.1677 7.06592L15.4688 8.44967Z" fill="#656565"/>
<path d="M23.8447 11.5657L31.5104 14.4255L31.7166 13.831C31.4645 13.3287 31.1208 12.7445 30.6968 12.1295C29.7343 10.7457 28.1416 8.9622 25.7239 7.77319L23.8447 11.5657V11.5657Z" fill="#656565"/>
<path d="M28.9324 1.21327C29.1043 0.967266 23.6501 0.967266 22.2178 1.13127C20.7855 1.30551 18.4022 1.76676 16.2366 2.83276C14.4032 3.73476 11.6074 5.90776 13.0741 6.17426C14.5407 6.44075 20.2928 5.07751 20.4991 4.96476C20.7053 4.85201 22.5387 3.40676 24.521 2.56626C26.5032 1.72576 28.8407 1.33627 28.9324 1.21327V1.21327Z" fill="#2D3134"/>
<path d="M28.0501 1.27475C28.073 1.2645 28.1074 1.2645 28.1303 1.25425C27.6033 1.2235 26.7897 1.203 25.7355 1.203C25.071 1.203 24.4178 1.21325 23.8564 1.23375C21.7022 1.72575 19.3533 2.474 17.9668 3.0685C16.1908 3.827 14.5064 4.7495 13.6699 6.0205C15.6293 5.9795 20.1324 4.9135 20.4074 4.80075C20.4418 4.78025 20.5678 4.688 20.7053 4.59575C21.347 4.1345 22.848 3.0685 24.4522 2.40225C25.7355 1.859 27.1793 1.49 28.0501 1.27475V1.27475Z" fill="#656565"/>
<path d="M41.7083 7.09672C42.6937 7.15822 44.2978 8.49072 44.9166 8.93147C45.5353 9.38247 47.5635 10.551 46.1999 11.9757C44.8364 13.4005 42.602 14.2922 40.5395 14.774C38.4655 15.2557 36.701 15.512 35.4749 14.5895C34.2489 13.667 33.4583 12.191 33.252 11.8425C33.0458 11.494 32.7135 11.0532 33.7562 10.2947C34.9593 9.41322 39.3593 6.95322 41.7083 7.09672Z" fill="#2D3134"/>
<path d="M41.7084 7.27103C42.648 7.32228 44.1719 8.59328 44.7677 9.02378C45.3636 9.45428 47.2886 10.5715 45.9823 11.9245C44.6875 13.2775 42.5677 14.1283 40.5855 14.5895C38.6146 15.0405 36.9302 15.2968 35.773 14.4153C34.6157 13.5338 33.848 12.1398 33.6532 11.8015C33.4584 11.4633 33.1375 11.0533 34.1344 10.3358C35.2802 9.48503 39.4625 7.14803 41.7084 7.27103Z" fill="#656565"/>
<path opacity="0.2" d="M46.4063 10.797C46.2573 9.96673 45.1802 9.33123 44.7677 9.03398C44.1719 8.60348 42.6479 7.34273 41.7083 7.28123C39.474 7.14798 35.2802 9.48498 34.1344 10.3255C33.5844 10.7252 33.4354 11.0327 33.4469 11.2787C37.6614 10.1929 42.1056 10.0277 46.4063 10.797V10.797Z" fill="black"/>
<path d="M38.2593 21.047C38.2593 21.047 38.8323 21.252 39.2562 21.1597C39.6916 21.0675 41.502 20.514 41.502 20.514C41.502 20.514 40.7458 18.136 39.9093 17.521C39.0843 16.906 38.1333 16.9982 37.9385 17.1007C37.7552 17.2032 38.0187 20.7497 38.2593 21.047V21.047Z" fill="#CC291F"/>
<path d="M50.0499 16.6599C50.0499 16.6599 51.4708 15.9526 51.4708 15.6554C51.4708 15.3581 50.852 13.1032 50.4051 12.6317C49.9582 12.1602 49.5801 11.8937 49.4082 11.9859C49.2249 12.0679 50.0385 16.5164 50.0499 16.6599Z" fill="#CC291F"/>
<path d="M43.4155 17.5826C43.5873 17.2853 47.5978 15.5121 47.8384 15.5941C48.079 15.6761 48.1821 17.1828 47.8957 17.5211C47.5978 17.8593 44.7217 19.2943 44.1603 19.2021C43.5988 19.1098 43.2665 17.8491 43.4155 17.5826V17.5826Z" fill="#2D3134"/>
<path d="M44.126 17.4184L44.4353 18.8227L47.3916 17.4594L47.0822 16.0757L44.126 17.4184Z" fill="#E5E5E5"/>
<path d="M41.502 20.5037L41.8342 21.0162C41.8342 21.0162 44.1145 20.3704 46.2342 19.3762C48.354 18.3922 50.1186 17.2237 50.1186 17.2237L50.0499 16.6497C50.0499 16.6497 48.4915 17.7669 46.1311 18.8432C43.8853 19.8784 41.502 20.5037 41.502 20.5037V20.5037Z" fill="#2D3134"/>
<path opacity="0.3" d="M6.3479 6.61499L13.3375 8.04999L32.7937 15.307L37.8698 18.464C37.8698 18.464 29.5281 15.9835 22.1146 12.8982C14.701 9.81299 6.3479 6.61499 6.3479 6.61499V6.61499Z" fill="white"/>
<path opacity="0.2" d="M31.5447 14.8663C30.4562 16.168 27.5687 19.571 27.2364 19.694C27.1447 19.7043 26.4457 19.53 22.1489 17.7055C22.0343 17.5518 21.7937 16.2295 21.9541 14.5793C22.1145 12.7855 22.9853 11.6888 22.9968 11.6785L22.9166 11.6273C22.9051 11.6375 22.0228 12.7548 21.8509 14.5793C21.7134 16.045 21.8853 17.2648 22.0228 17.6543C21.4728 17.4185 20.8655 17.1623 20.1895 16.8753C16.7634 15.3993 13.4405 13.9233 13.3259 13.8515C13.1082 13.7183 12.4666 12.5395 12.5468 10.7868C12.627 9.0853 13.3832 8.11155 13.3832 8.1013L13.303 8.05005C13.2916 8.0603 12.5239 9.05455 12.4437 10.7868C12.3634 12.56 13.0051 13.7695 13.2687 13.9335C13.4062 14.0258 16.8895 15.5633 20.2009 16.988C26.2051 19.571 27.0759 19.8068 27.2478 19.8068C27.2707 19.8068 27.2822 19.8068 27.2937 19.7965C27.7176 19.6325 31.4759 15.1328 31.6364 14.938L31.5447 14.8663V14.8663Z" fill="black"/>
<path d="M33.0574 11.4119C32.0033 9.23895 25.2772 4.29846 20.2241 5.02621L20.2012 4.89296C23.2605 4.45221 26.5605 6.04096 28.2449 7.02496C30.548 8.3677 32.622 10.1819 33.1949 11.3607L33.0574 11.4119V11.4119Z" fill="#2D3134"/>
<path d="M42.2928 7.39397C37.7668 4.62647 31.7168 1.31572 28.623 1.25422V1.11072C31.7512 1.17222 37.8355 4.49322 42.3845 7.27097L42.2928 7.39397V7.39397Z" fill="#2D3134"/>
<path d="M15.0103 8.79828L15.3426 7.61953C15.3426 7.61953 14.7582 7.35303 14.552 7.49653C14.3457 7.64003 13.8989 8.80853 14.2426 9.16728C14.5864 9.52603 14.6895 9.53629 14.6895 9.53629L15.0103 8.79828V8.79828Z" fill="#F8EBCB"/>
<path opacity="0.29" d="M51.9979 17.4595C52.0438 17.2238 51.975 16.824 51.849 16.3423C50.7834 17.3775 48.8927 18.8228 45.8563 20.063C42.6136 21.3853 40.5167 21.908 39.3708 22.1233C39.4281 22.6358 39.4052 23.4968 39.4281 23.9888C41.5365 23.7633 44.0573 23.1175 46.3948 22.0105C50.2906 20.1553 51.8146 18.3923 51.9979 17.4595V17.4595Z" fill="black"/>
<path opacity="0.11" d="M38.5687 17.7669C38.3051 16.9367 36.2197 16.4549 34.5239 15.0302C32.977 13.7387 31.052 8.99291 25.2541 6.80966C19.353 4.59567 15.4228 6.77891 12.352 7.08641C10.2551 7.29141 7.04679 6.44066 4.68638 5.77441C4.17075 6.51241 3.89575 7.25041 3.89575 7.93716C3.89575 8.75716 4.07909 9.58741 5.31659 10.4894C5.52284 10.6432 5.84367 10.8379 6.22179 11.0532C6.19888 10.8994 6.17596 10.7457 6.17596 10.5919C6.17596 9.50541 6.88638 8.80841 7.98638 8.80841C8.42179 8.80841 8.89159 8.92116 9.37284 9.13641C11.0343 9.87441 12.3749 11.6887 12.3749 13.1749C12.3749 13.5029 12.3062 13.8002 12.1801 14.0564L28.2562 21.0982C28.2103 20.8932 28.1874 20.6984 28.1874 20.5037C28.1874 19.4172 28.8978 18.7202 29.9978 18.7202C30.4332 18.7202 30.903 18.8329 31.3843 19.0482C33.0457 19.7862 34.3864 21.6004 34.3864 23.0866C34.3864 23.2711 34.3635 23.4454 34.3291 23.6094C34.9478 23.7734 35.8072 23.9476 36.8499 24.0399C37.5833 24.1014 38.4541 24.0911 39.4166 23.9886C39.3249 19.9092 38.7635 18.3614 38.5687 17.7669Z" fill="black"/>
<path d="M5.98132 6.52279C5.98132 6.52279 5.92403 5.62079 6.18757 5.25179C6.45111 4.88279 6.27924 4.33954 5.96986 4.40104C5.6032 4.47279 4.52612 5.78479 4.46883 6.08204C4.43445 6.38954 5.98132 6.52279 5.98132 6.52279Z" fill="#E5E5E5"/>
<path opacity="0.2" d="M6.13013 5.04666C6.13013 5.30292 5.90096 5.62067 5.6145 5.74367C5.32804 5.87692 5.09888 5.76417 5.09888 5.50792C5.09888 5.25167 5.32804 4.93391 5.6145 4.81091C5.90096 4.68791 6.13013 4.79041 6.13013 5.04666Z" fill="black"/>
<path opacity="0.4" d="M5.78633 5.20049C5.78633 5.33374 5.66029 5.50799 5.51133 5.56949C5.36237 5.64124 5.23633 5.57974 5.23633 5.44649C5.23633 5.31324 5.36237 5.13899 5.51133 5.07749C5.66029 5.00574 5.78633 5.05699 5.78633 5.20049Z" fill="white"/>
<path opacity="0.4" d="M5.82075 5.84621C5.82075 5.97946 5.69471 6.15371 5.54575 6.21521C5.39679 6.27671 5.27075 6.22546 5.27075 6.09221C5.27075 5.95896 5.39679 5.78471 5.54575 5.72321C5.69471 5.66171 5.82075 5.71296 5.82075 5.84621Z" fill="white"/>
<path opacity="0.8" d="M38.3281 19.0277L38.4542 19.6734L39.0385 19.7349L40.7687 19.2122L40.4823 18.6074L38.9698 19.1097L38.3281 19.0277Z" fill="white"/>
<path opacity="0.8" d="M49.8438 14.405L50.8979 13.7593L51.1156 14.3025L50.0042 15.0713L49.8438 14.405Z" fill="white"/>
</svg>
